# 3ds Max Wavefront OBJ Exporter v0.99 - (c)2007 guruware
# File Created: 28.01.2022 19:10:55

mtllib door.mtl

#
# object Box005
#

v  -1.3995 43.4100 -40.9902
v  -1.3995 43.4100 -4.5382
v  -0.0211 43.4100 -4.5382
v  -0.0211 43.4100 -40.9902
v  -0.0211 -43.0574 -4.5382
v  -1.3995 -43.0574 -4.5382
v  -1.3995 -43.0574 -40.9902
v  -0.0211 -43.0574 -40.9902
# 8 vertices

vn -0.5774 0.5774 -0.5774
vn -0.5774 0.5774 0.5774
vn 0.5774 0.5774 0.5774
vn 0.5774 0.5774 -0.5774
vn 0.5774 -0.5774 0.5774
vn -0.5774 -0.5774 0.5774
vn -0.5774 -0.5774 -0.5774
vn 0.5774 -0.5774 -0.5774
# 8 vertex normals

vt 0.0000 1.0000 0.0000
vt 0.0000 0.0000 0.0000
vt 1.0000 0.0000 0.0000
vt 1.0000 1.0000 0.0000
# 4 texture coords

o Box005
g Box005
usemtl 08___Default
s 2
f 1/1/1 2/2/2 3/3/3 4/4/4 
s 4
f 5/2/5 6/3/6 7/4/7 8/1/8 
s 8
f 3/3/3 2/2/2 6/1/6 5/4/5 
s 16
f 4/3/4 3/2/3 5/1/5 8/4/8 
s 32
f 1/3/1 4/2/4 8/1/8 7/4/7 
s 64
f 2/3/2 1/2/1 7/1/7 6/4/6 
# 6 polygons

#
# object Box006
#

v  -2.7673 43.4100 -40.9902
v  -2.7673 43.4100 -4.5382
v  -1.3888 43.4100 -4.5382
v  -1.3888 43.4100 -40.9902
v  -1.3888 -43.0574 -4.5382
v  -2.7673 -43.0574 -4.5382
v  -2.7673 -43.0574 -40.9902
v  -1.3888 -43.0574 -40.9902
# 8 vertices

vn -0.5774 0.5774 -0.5774
vn -0.5774 0.5774 0.5774
vn 0.5774 0.5774 0.5774
vn 0.5774 0.5774 -0.5774
vn 0.5774 -0.5774 0.5774
vn -0.5774 -0.5774 0.5774
vn -0.5774 -0.5774 -0.5774
vn 0.5774 -0.5774 -0.5774
# 8 vertex normals

vt 0.0000 1.0000 0.0000
vt 0.0000 0.0000 0.0000
vt 1.0000 0.0000 0.0000
vt 1.0000 1.0000 0.0000
# 4 texture coords

o Box006
g Box006
usemtl 07___Default
s 2
f 9/5/9 10/6/10 11/7/11 12/8/12 
s 4
f 13/6/13 14/7/14 15/8/15 16/5/16 
s 8
f 11/7/11 10/6/10 14/5/14 13/8/13 
s 16
f 12/7/12 11/6/11 13/5/13 16/8/16 
s 32
f 9/7/9 12/6/12 16/5/16 15/8/15 
s 64
f 10/7/10 9/6/9 15/5/15 14/8/14 
# 6 polygons

