# 3ds Max Wavefront OBJ Exporter v0.99 - (c)2007 guruware
# File Created: 28.01.2022 15:34:30

mtllib FRAME.mtl

#
# object Door_low_002
#

v  1.4312 44.7377 19.3102
v  1.4312 -43.7406 19.3103
v  1.8239 -43.7406 19.3103
v  1.8239 44.7377 19.3102
v  -4.0172 44.7377 19.3102
v  -4.4100 44.7377 19.3102
v  -4.4100 -43.7406 19.3103
v  -4.0172 -43.7406 19.3103
v  -4.0172 44.7377 -19.3102
v  -4.0172 47.7656 -22.1605
v  -4.0172 -43.7406 -22.1605
v  -4.0172 -43.7406 -19.3102
v  -4.0172 47.7656 22.1605
v  1.4312 44.7377 -19.3102
v  1.4312 -43.7406 -19.3102
v  1.4312 -43.7406 -22.1605
v  1.4312 47.7656 -22.1605
v  -4.0172 -43.7406 22.1605
v  1.4312 47.7656 22.1605
v  1.4312 -43.7406 22.1605
v  1.8239 43.7406 -18.3867
v  1.8239 43.7406 18.3867
v  -4.4100 43.7406 18.3867
v  -4.4100 43.7406 -18.3867
v  -4.4100 -43.7406 -18.3866
v  -3.9113 -43.7406 -18.3866
v  1.3252 -43.7406 -18.3866
v  1.8239 -43.7406 -18.3866
v  1.8239 44.7377 -19.3102
v  1.8239 -43.7406 -19.3102
v  1.8239 -43.7406 18.3867
v  -4.4100 44.7377 -19.3102
v  -4.4100 -43.7406 -19.3102
v  -4.4100 -43.7406 18.3867
v  1.3252 -43.7406 18.3867
v  -3.9113 -43.7406 18.3867
# 36 vertices

vn 0.0000 0.0000 1.0000
vn -1.0000 0.0000 0.0000
vn 1.0000 0.0000 0.0000
vn 1.0000 0.0000 -0.0000
vn 0.0000 -1.0000 0.0000
vn 0.0000 -0.0000 -1.0000
vn 0.0000 1.0000 -0.0000
vn -1.0000 0.0000 -0.0000
vn 0.0000 0.7071 -0.7071
# 9 vertex normals

vt 0.9878 0.6895 0.0000
vt 0.9878 0.0020 0.0000
vt 0.9909 0.0020 0.0000
vt 0.9909 0.6895 0.0000
vt 0.9980 0.6895 0.0000
vt 0.9949 0.6895 0.0000
vt 0.9949 0.0020 0.0000
vt 0.9980 0.0020 0.0000
vt 0.7758 0.6895 0.0000
vt 0.7530 0.7130 0.0000
vt 0.7530 0.0020 0.0000
vt 0.7758 0.0020 0.0000
vt 0.6817 0.7642 0.0000
vt 0.7044 0.7877 0.0000
vt 0.3503 0.7877 0.0000
vt 0.3731 0.7642 0.0000
vt 0.8292 0.0255 0.0000
vt 0.8292 0.7130 0.0000
vt 0.8064 0.7130 0.0000
vt 0.8064 0.0020 0.0000
vt 0.7797 0.0020 0.0000
vt 0.8025 0.0020 0.0000
vt 0.8025 0.7130 0.0000
vt 0.7797 0.6895 0.0000
vt 0.8332 0.7130 0.0000
vt 0.8332 0.0255 0.0000
vt 0.8559 0.0020 0.0000
vt 0.8559 0.7130 0.0000
vt 0.9097 0.0020 0.0000
vt 0.9097 0.2877 0.0000
vt 0.8599 0.2877 0.0000
vt 0.8599 0.0020 0.0000
vt 0.6817 0.8151 0.0000
vt 0.3731 0.8151 0.0000
vt 0.3503 0.7915 0.0000
vt 0.7044 0.7915 0.0000
vt 0.6473 0.6817 0.0000
vt 0.5974 0.6817 0.0000
vt 0.5974 0.0020 0.0000
vt 0.6014 0.0020 0.0000
vt 0.6433 0.0020 0.0000
vt 0.6473 0.0020 0.0000
vt 0.9766 0.0020 0.0000
vt 0.9766 0.6895 0.0000
vt 0.9734 0.6895 0.0000
vt 0.9734 0.0020 0.0000
vt 0.9699 0.6933 0.0000
vt 0.9699 0.9934 0.0000
vt 0.9668 0.9934 0.0000
vt 0.9668 0.6933 0.0000
vt 0.9460 0.0020 0.0000
vt 0.9460 0.6895 0.0000
vt 0.9386 0.6895 0.0000
vt 0.9386 0.0097 0.0000
vt 0.9501 0.6895 0.0000
vt 0.9501 0.0020 0.0000
vt 0.9574 0.0097 0.0000
vt 0.9574 0.6895 0.0000
vt 0.9615 0.0020 0.0000
vt 0.9693 0.0093 0.0000
vt 0.9693 0.3032 0.0000
vt 0.9615 0.3106 0.0000
vt 0.9739 0.6933 0.0000
vt 0.9771 0.6933 0.0000
vt 0.9771 0.9934 0.0000
vt 0.9739 0.9934 0.0000
vt 0.0020 0.8413 0.0000
vt 0.3106 0.8413 0.0000
vt 0.3032 0.8491 0.0000
vt 0.0093 0.8491 0.0000
vt 0.6895 0.8189 0.0000
vt 0.6895 0.8263 0.0000
vt 0.0097 0.8263 0.0000
vt 0.0020 0.8189 0.0000
vt 0.0020 0.8375 0.0000
vt 0.0097 0.8301 0.0000
vt 0.6895 0.8301 0.0000
vt 0.6895 0.8375 0.0000
vt 0.7130 0.7168 0.0000
vt 0.7130 0.7604 0.0000
vt 0.0020 0.7604 0.0000
vt 0.0020 0.7168 0.0000
vt 0.7488 0.7130 0.0000
vt 0.7053 0.7130 0.0000
vt 0.7053 0.0020 0.0000
vt 0.7488 0.0020 0.0000
vt 0.9806 0.0020 0.0000
vt 0.9837 0.0020 0.0000
vt 0.9837 0.6895 0.0000
vt 0.9806 0.6895 0.0000
vt 0.0020 0.7642 0.0000
vt 0.3463 0.7642 0.0000
vt 0.3463 0.8077 0.0000
vt 0.0020 0.8077 0.0000
vt 0.6514 0.6817 0.0000
vt 0.6514 0.0020 0.0000
vt 0.6553 0.0020 0.0000
vt 0.6972 0.0020 0.0000
vt 0.7012 0.0020 0.0000
vt 0.7012 0.6817 0.0000
# 100 texture coords

o Door_low_002
g Door_low_002
usemtl Door
s off
f 1/1/1 2/2/1 3/3/1 4/4/1 
f 5/5/1 6/6/1 7/7/1 8/8/1 
f 9/9/2 10/10/2 11/11/2 12/12/2 
f 5/13/2 13/14/2 10/15/2 9/16/2 
f 14/17/3 15/18/3 16/19/3 17/20/3 
f 8/21/2 18/22/2 13/23/2 5/24/2 
f 2/25/4 1/26/4 19/27/4 20/28/4 
f 21/29/5 22/30/5 23/31/5 24/32/5 
f 1/33/4 14/34/3 17/35/3 19/36/4 
f 21/37/1 24/38/1 25/39/1 26/40/1 27/41/1 28/42/1 
f 15/43/6 14/44/6 29/45/6 30/46/6 
f 14/47/7 1/48/7 4/49/7 29/50/7 
f 4/51/3 3/52/4 31/53/4 22/54/3 
f 30/55/4 29/56/3 21/57/3 28/58/4 
f 32/59/2 24/60/2 23/61/8 6/62/8 
f 9/63/9 32/64/9 6/65/7 5/66/7 
f 29/67/3 4/68/3 22/69/3 21/70/3 
f 33/71/2 25/72/2 24/73/2 32/74/2 
f 6/75/8 23/76/8 34/77/8 7/78/8 
f 18/79/1 20/80/1 19/81/1 13/82/1 
f 16/83/6 11/84/6 10/85/6 17/86/6 
f 12/87/6 33/88/6 32/89/9 9/90/9 
f 10/91/7 13/92/7 19/93/7 17/94/7 
f 22/95/6 31/96/6 35/97/6 36/98/6 34/99/6 23/100/6 
# 24 polygons

